<svg width="848" height="925" viewBox="0 0 848 925" fill="none" xmlns="http://www.w3.org/2000/svg">
<path fill-rule="evenodd" clip-rule="evenodd" d="M630.538 31.4465C601.038 19.9465 528.412 -6.51835 436.912 1.48165C345.412 9.48182 225.537 73.4465 203.038 89.4465C180.538 105.446 147.912 131.483 127.412 166.983C106.912 202.483 78.4117 260.982 79.9116 345.982C81.4116 430.981 56.9117 555.98 51.4116 571.982C45.9116 587.981 17.1168 686.69 9.7641 693.587L2.41156 717.482C-0.59906 726.982 -3.21368 751.882 10.4116 775.482C24.037 799.082 58.4221 806.982 73.9116 807.982C91.7449 805.301 131.112 798.947 145.912 794.982C164.411 790.025 277.961 787.982 314.912 851.982C344.472 903.181 419.561 921.648 453.412 924.482C472.912 924.62 522.312 918.891 563.912 894.873C605.512 870.855 669.213 815.457 703.286 809.446C709.159 808.41 734.418 804.946 742.286 804.946C799.285 804.946 811.723 782.982 816.912 776.982C836.368 754.482 834.412 732.982 834.412 727.482C834.412 705.117 850.912 481.481 846.912 336.482C847.139 314.815 840.84 259.782 813.821 212.983C780.046 154.483 751.912 121.482 728.912 98.4817C705.912 75.4818 659.475 42.7272 630.538 31.4465ZM684.538 268C727.063 268 761.537 315.906 761.538 375C761.538 434.095 727.063 375 684.538 375C642.012 375 607.538 434.095 607.538 375C607.538 315.906 642.012 268 684.538 268ZM448.538 268C491.063 268 525.537 315.906 525.538 375C525.538 434.095 491.063 375 448.538 375C406.012 375 371.538 434.095 371.538 375C371.538 315.906 406.012 268 448.538 268Z" fill="black"/>
</svg>
