<svg width="1778" height="669" viewBox="0 0 1778 669" fill="none" xmlns="http://www.w3.org/2000/svg">
<path d="M0.286579 584.205C-2.15221 569.697 11.379 557.61 25.5207 561.664L110.028 585.887L120.028 589.763L130.528 593.299L144.528 597.284L154.028 599.578L172.028 603.151L179.528 604.377L188.223 605.629L195.028 606.49L205.528 607.633L213.028 608.323L221.528 608.987L237.294 609.922L251.028 610.462L288.028 611.423L329.664 609.923L371.028 606.764L390.028 603.844L408.028 600.289L420.834 597.012L431.028 593.947L439.299 591.092L447.528 587.878L458.075 583.082C459.04 582.644 460.039 582.282 461.061 582.002L541.735 559.864C554.465 556.37 567.028 565.95 567.028 579.151V629.151C567.028 639.909 558.519 648.739 547.77 649.138L32.0809 668.272C22.0402 668.644 13.2818 661.51 11.6161 651.601L0.286579 584.205Z" fill="#6B4A38"/>
<path d="M551.515 336.923C571.515 572.923 431.527 594.923 283.515 594.923C135.503 594.923 -25.4851 569.423 15.5149 336.923C266.515 323.923 -65.5847 -192.988 283.515 78.9231C374.028 149.423 454.028 227.423 551.515 336.923Z" fill="#FFAB6E"/>
<path d="M427.987 394.174C438.862 530.239 362.748 542.923 282.271 542.923C201.794 542.923 114.263 528.221 136.555 394.174C273.028 386.679 92.4598 88.6567 282.271 245.426C331.485 286.072 374.982 331.043 427.987 394.174Z" fill="#FFD6B8"/>
<path d="M740.764 648.806C723.023 648.806 706.666 644.249 691.692 635.134C676.881 626.019 664.999 613.894 656.048 598.757C647.258 583.458 642.864 566.693 642.864 548.464V525.515C642.864 523.725 643.678 522.829 645.305 522.829H701.458C702.76 522.829 703.411 523.725 703.411 525.515V548.464C703.411 559.369 707.073 568.809 714.397 576.784C721.721 584.597 730.51 588.503 740.764 588.503C751.181 588.503 760.051 584.516 767.376 576.54C774.7 568.402 778.362 559.044 778.362 548.464C778.362 536.257 770.387 525.596 754.436 516.482C751.832 514.854 748.414 512.901 744.182 510.622C740.113 508.181 735.23 505.414 729.534 502.322C723.837 499.229 718.303 496.218 712.932 493.288C707.561 490.196 702.353 487.266 697.307 484.499C679.078 473.757 665.488 460.329 656.536 444.216C647.747 427.94 643.352 409.711 643.352 389.529C643.352 370.974 647.91 354.21 657.024 339.236C666.139 324.424 678.02 312.706 692.669 304.079C707.48 295.29 723.512 290.896 740.764 290.896C758.505 290.896 774.781 295.29 789.592 304.079C804.404 313.031 816.204 324.913 824.993 339.724C833.945 354.535 838.421 371.137 838.421 389.529V430.544C838.421 431.846 837.77 432.497 836.467 432.497H780.315C779.013 432.497 778.362 431.846 778.362 430.544L777.874 389.529C777.874 377.81 774.212 368.288 766.887 360.964C759.563 353.64 750.855 349.978 740.764 349.978C730.51 349.978 721.721 353.884 714.397 361.697C707.073 369.509 703.411 378.786 703.411 389.529C703.411 400.434 705.689 409.548 710.247 416.872C714.967 424.197 723.512 431.195 735.882 437.868C737.184 438.519 740.195 440.147 744.915 442.751C749.635 445.355 754.843 448.285 760.54 451.54C766.399 454.633 771.689 457.481 776.409 460.085C781.129 462.527 783.977 463.991 784.954 464.48C801.555 473.757 814.658 485.15 824.26 498.659C834.026 512.169 838.909 528.77 838.909 548.464C838.909 567.507 834.514 584.597 825.725 599.734C816.773 614.87 804.892 626.833 790.081 635.622C775.27 644.411 758.831 648.806 740.764 648.806ZM932.171 643.923H875.53C874.228 643.923 873.577 643.109 873.577 641.482L874.553 297.976C874.553 296.674 875.204 296.023 876.507 296.023H937.542C938.844 296.023 939.983 296.674 940.96 297.976L986.614 363.894L1032.02 297.976C1033 296.674 1034.22 296.023 1035.69 296.023H1096.97C1098.43 296.023 1099.16 296.674 1099.16 297.976L1100.14 641.482C1100.14 643.109 1099.49 643.923 1098.19 643.923H1041.55C1040.24 643.923 1039.59 643.109 1039.59 641.482L1039.1 386.355L986.614 462.527L934.612 386.355L934.124 641.482C934.124 643.109 933.473 643.923 932.171 643.923ZM1234.66 648.806C1216.92 648.806 1200.56 644.249 1185.59 635.134C1170.78 626.019 1158.81 613.894 1149.7 598.757C1140.75 583.458 1136.27 566.693 1136.27 548.464L1136.76 390.017C1136.76 371.462 1141.24 354.779 1150.19 339.968C1158.98 324.994 1170.86 313.031 1185.83 304.079C1200.81 294.965 1217.08 290.407 1234.66 290.407C1252.89 290.407 1269.25 294.883 1283.73 303.835C1298.38 312.787 1310.1 324.831 1318.89 339.968C1327.84 354.942 1332.32 371.625 1332.32 390.017L1332.81 548.464C1332.81 566.693 1328.41 583.376 1319.62 598.513C1310.67 613.812 1298.79 626.019 1283.98 635.134C1269.17 644.249 1252.73 648.806 1234.66 648.806ZM1234.66 588.503C1244.75 588.503 1253.54 584.434 1261.03 576.296C1268.51 567.995 1272.26 558.718 1272.26 548.464L1271.77 390.017C1271.77 378.949 1268.27 369.59 1261.27 361.941C1254.27 354.291 1245.4 350.466 1234.66 350.466C1224.41 350.466 1215.62 354.21 1208.29 361.697C1200.97 369.184 1197.31 378.624 1197.31 390.017V548.464C1197.31 559.369 1200.97 568.809 1208.29 576.784C1215.62 584.597 1224.41 588.503 1234.66 588.503ZM1429.24 643.923H1372.6C1371.3 643.923 1370.65 643.109 1370.65 641.482L1371.62 297.976C1371.62 296.674 1372.27 296.023 1373.58 296.023H1474.65C1492.72 296.023 1509.32 300.417 1524.46 309.206C1539.59 317.995 1551.64 329.795 1560.59 344.607C1569.7 359.418 1574.26 376.182 1574.26 394.9C1574.26 407.107 1572.39 418.174 1568.65 428.103C1564.9 438.031 1560.51 446.413 1555.46 453.249C1550.58 460.085 1546.1 465.131 1542.03 468.386C1560.1 488.406 1569.13 511.924 1569.13 538.943L1569.62 641.482C1569.62 643.109 1568.81 643.923 1567.18 643.923H1510.54C1509.24 643.923 1508.59 643.435 1508.59 642.458V538.943C1508.59 526.898 1504.35 516.482 1495.89 507.693C1487.43 498.904 1477.01 494.509 1464.64 494.509H1431.68L1431.19 641.482C1431.19 643.109 1430.54 643.923 1429.24 643.923ZM1474.65 355.837H1431.68V434.45H1474.65C1484.9 434.45 1494.02 430.626 1501.99 422.976C1510.13 415.326 1514.2 405.967 1514.2 394.9C1514.2 384.32 1510.3 375.206 1502.48 367.556C1494.67 359.743 1485.39 355.837 1474.65 355.837ZM1775.43 643.923H1613.81C1612.51 643.923 1611.86 643.109 1611.86 641.482L1612.35 297.976C1612.35 296.674 1613 296.023 1614.3 296.023H1774.94C1776.25 296.023 1776.9 296.837 1776.9 298.464V354.372C1776.9 355.674 1776.25 356.325 1774.94 356.325H1672.4V434.45H1774.94C1776.25 434.45 1776.9 435.101 1776.9 436.404L1777.39 493.044C1777.39 494.346 1776.73 494.997 1775.43 494.997H1672.4V582.4H1775.43C1776.73 582.4 1777.39 583.213 1777.39 584.841V641.97C1777.39 643.272 1776.73 643.923 1775.43 643.923Z" fill="#918477"/>
</svg>
