<svg width="188" height="335" viewBox="0 0 188 335" fill="none" xmlns="http://www.w3.org/2000/svg">
<g filter="url(#filter0_d_0_1)">
<rect x="13.8" y="10.9964" width="160" height="36" rx="18" fill="#D9D9D9"/>
<rect x="14.3" y="11.4964" width="159" height="35" rx="17.5" stroke="black"/>
</g>
<rect x="19.9391" y="-0.52153" width="149" height="268" rx="74.5" transform="rotate(0.402547 19.9391 -0.52153)" fill="#D9D9D9"/>
<ellipse cx="44.8338" cy="193.007" rx="27" ry="86" transform="rotate(0.0225293 44.8338 193.007)" fill="#D9D9D9"/>
<ellipse cx="141.834" cy="193.007" rx="27" ry="86" transform="rotate(0.0225293 141.834 193.007)" fill="#D9D9D9"/>
<ellipse cx="94.2023" cy="239.287" rx="41.5511" ry="94.9207" transform="rotate(-0.514813 94.2023 239.287)" fill="#D9D9D9"/>
<g filter="url(#filter1_d_0_1)">
<rect x="8.8" y="15.9964" width="170" height="42" rx="21" fill="#D9D9D9"/>
<rect x="9.3" y="16.4964" width="169" height="41" rx="20.5" stroke="black"/>
</g>
<defs>
<filter id="filter0_d_0_1" x="5" y="6.19638" width="177.6" height="53.6" filterUnits="userSpaceOnUse" color-interpolation-filters="sRGB">
<feFlood flood-opacity="0" result="BackgroundImageFix"/>
<feColorMatrix in="SourceAlpha" type="matrix" values="0 0 0 0 0 0 0 0 0 0 0 0 0 0 0 0 0 0 127 0" result="hardAlpha"/>
<feOffset dy="4"/>
<feGaussianBlur stdDeviation="4.4"/>
<feComposite in2="hardAlpha" operator="out"/>
<feColorMatrix type="matrix" values="0 0 0 0 0 0 0 0 0 0 0 0 0 0 0 0 0 0 0.25 0"/>
<feBlend mode="normal" in2="BackgroundImageFix" result="effect1_dropShadow_0_1"/>
<feBlend mode="normal" in="SourceGraphic" in2="effect1_dropShadow_0_1" result="shape"/>
</filter>
<filter id="filter1_d_0_1" x="2.86102e-06" y="11.1964" width="187.6" height="59.6" filterUnits="userSpaceOnUse" color-interpolation-filters="sRGB">
<feFlood flood-opacity="0" result="BackgroundImageFix"/>
<feColorMatrix in="SourceAlpha" type="matrix" values="0 0 0 0 0 0 0 0 0 0 0 0 0 0 0 0 0 0 127 0" result="hardAlpha"/>
<feOffset dy="4"/>
<feGaussianBlur stdDeviation="4.4"/>
<feComposite in2="hardAlpha" operator="out"/>
<feColorMatrix type="matrix" values="0 0 0 0 0 0 0 0 0 0 0 0 0 0 0 0 0 0 0.25 0"/>
<feBlend mode="normal" in2="BackgroundImageFix" result="effect1_dropShadow_0_1"/>
<feBlend mode="normal" in="SourceGraphic" in2="effect1_dropShadow_0_1" result="shape"/>
</filter>
</defs>
</svg>
