<svg width="143" height="50" viewBox="0 0 143 50" fill="none" xmlns="http://www.w3.org/2000/svg">
<path d="M-6.02007e-06 36.916V11.416H6.14999V17.416H6.29999V36.916H-6.02007e-06ZM17.9 36.916V20.816C17.9 19.2493 17.5 18.066 16.7 17.266C15.9 16.466 14.7333 16.066 13.2 16.066C11.8667 16.066 10.6667 16.366 9.59999 16.966C8.56666 17.566 7.74999 18.3993 7.14999 19.466C6.58333 20.5327 6.29999 21.766 6.29999 23.166L5.64999 17.066C6.51666 15.1993 7.78333 13.716 9.44999 12.616C11.1167 11.4827 13.1167 10.916 15.45 10.916C18.2167 10.916 20.3667 11.6993 21.9 13.266C23.4667 14.8327 24.25 16.916 24.25 19.516V36.916H17.9ZM42.0652 37.416C39.3652 37.416 36.9986 36.8493 34.9652 35.716C32.9652 34.5827 31.3986 33.016 30.2652 31.016C29.1652 29.016 28.6152 26.716 28.6152 24.116C28.6152 21.516 29.1652 19.2327 30.2652 17.266C31.3986 15.266 32.9652 13.716 34.9652 12.616C36.9652 11.4827 39.2986 10.916 41.9652 10.916C44.4986 10.916 46.6986 11.4493 48.5652 12.516C50.4319 13.5493 51.8819 15.016 52.9152 16.916C53.9486 18.816 54.4652 21.0327 54.4652 23.566C54.4652 24.0327 54.4486 24.466 54.4152 24.866C54.3819 25.266 54.3319 25.666 54.2652 26.066H32.5152V21.666H49.4152L48.1152 22.866C48.1152 20.466 47.5652 18.666 46.4652 17.466C45.3652 16.266 43.8319 15.666 41.8652 15.666C39.7319 15.666 38.0319 16.3993 36.7652 17.866C35.5319 19.3327 34.9152 21.4493 34.9152 24.216C34.9152 26.9493 35.5319 29.0493 36.7652 30.516C38.0319 31.9493 39.8152 32.666 42.1152 32.666C43.4486 32.666 44.6152 32.416 45.6152 31.916C46.6152 31.416 47.3486 30.6493 47.8152 29.616H53.7652C52.9319 32.016 51.5152 33.916 49.5152 35.316C47.5486 36.716 45.0652 37.416 42.0652 37.416ZM74.5801 36.916L66.7301 25.516L56.1301 11.416H63.2801L70.3801 21.766L81.7301 36.916H74.5801ZM67.2301 21.566L74.3801 11.416H81.3801L70.2801 25.966L67.2301 21.566ZM69.7301 26.266L62.0301 36.916H55.0801L66.7301 21.816L69.7301 26.266ZM96.0238 37.416C93.3238 37.416 90.9405 36.8493 88.8738 35.716C86.8405 34.5827 85.2572 33.016 84.1238 31.016C82.9905 28.9827 82.4238 26.666 82.4238 24.066C82.4238 21.466 82.9905 19.1827 84.1238 17.216C85.2572 15.2493 86.8405 13.716 88.8738 12.616C90.9405 11.4827 93.3238 10.916 96.0238 10.916C98.7572 10.916 101.14 11.4827 103.174 12.616C105.207 13.716 106.79 15.2493 107.924 17.216C109.057 19.1827 109.624 21.466 109.624 24.066C109.624 26.666 109.04 28.9827 107.874 31.016C106.74 33.016 105.157 34.5827 103.124 35.716C101.09 36.8493 98.7238 37.416 96.0238 37.416ZM96.0238 32.366C97.3572 32.366 98.5572 32.0327 99.6238 31.366C100.69 30.666 101.524 29.6993 102.124 28.466C102.724 27.1993 103.024 25.716 103.024 24.016C103.024 21.516 102.357 19.5493 101.024 18.116C99.7238 16.6827 98.0572 15.966 96.0238 15.966C93.9905 15.966 92.3072 16.6827 90.9738 18.116C89.6405 19.5493 88.9738 21.516 88.9738 24.016C88.9738 25.716 89.2738 27.1993 89.8738 28.466C90.5072 29.6993 91.3405 30.666 92.3738 31.366C93.4405 32.0327 94.6572 32.366 96.0238 32.366ZM124.105 37.416C120.572 37.416 117.755 36.6827 115.655 35.216C113.555 33.716 112.405 31.6493 112.205 29.016H117.955C118.122 30.316 118.739 31.2993 119.805 31.966C120.872 32.6327 122.305 32.966 124.105 32.966C125.739 32.966 126.955 32.716 127.755 32.216C128.589 31.6827 129.005 30.9327 129.005 29.966C129.005 29.266 128.772 28.6993 128.305 28.266C127.839 27.7993 126.955 27.416 125.655 27.116L121.555 26.166C118.755 25.566 116.672 24.6327 115.305 23.366C113.972 22.066 113.305 20.4493 113.305 18.516C113.305 16.1493 114.205 14.2993 116.005 12.966C117.839 11.5993 120.355 10.916 123.555 10.916C126.722 10.916 129.255 11.5993 131.155 12.966C133.089 14.2993 134.155 16.1493 134.355 18.516H128.605C128.439 17.4827 127.905 16.6993 127.005 16.166C126.139 15.6327 124.939 15.366 123.405 15.366C121.972 15.366 120.889 15.5993 120.155 16.066C119.422 16.4993 119.055 17.1493 119.055 18.016C119.055 18.6827 119.339 19.2493 119.905 19.716C120.472 20.1493 121.422 20.5327 122.755 20.866L127.155 21.866C129.655 22.4327 131.539 23.416 132.805 24.816C134.105 26.216 134.755 27.866 134.755 29.766C134.755 32.1993 133.822 34.0827 131.955 35.416C130.089 36.7493 127.472 37.416 124.105 37.416Z" fill="white"/>
<rect x="136.65" y="11.916" width="6" height="6" fill="#FF0000"/>
<rect x="136.65" y="18.916" width="6" height="6" fill="#FFC800"/>
<rect x="136.65" y="25.916" width="6" height="6" fill="#1D9F00"/>
<rect x="136.65" y="32.916" width="6" height="6" fill="#0000FF"/>
<rect x="55.7335" y="11.1899" width="6.26332" height="40.2756" transform="rotate(-36.3499 55.7335 11.1899)" fill="white"/>
<path d="M88.0463 49.7942L80.697 44.3585L85.2067 41.1054L88.0463 49.7942Z" fill="white"/>
<path d="M51.5363 1.62829e-06L59.7211 5.72826L54.892 9.40973L51.5363 1.62829e-06Z" fill="white"/>
</svg>
